
<svg width="105px" height="64px" viewBox="0 0 105 64" version="1.1" xmlns="http://www.w3.org/2000/svg" xmlns:xlink="http://www.w3.org/1999/xlink">
    <!-- Generator: Sketch 50 (54983) - http://www.bohemiancoding.com/sketch -->
    <desc>Created with Sketch.</desc>
    <defs>
        <polygon id="path-1" points="0.76765678 0.202614407 10.2597458 0.202614407 10.2597458 16.0166822 0.76765678 16.0166822"></polygon>
        <polygon id="path-3" points="0 -0.000266949153 73.9054958 -0.000266949153 73.9054958 47.5104534 0 47.5104534"></polygon>
    </defs>
    <g id="Page-1" stroke="none" stroke-width="1" fill="none" fill-rule="evenodd">
        <g id="Desktop-Copy-10" transform="translate(-21.000000, -28.000000)">
            <g id="Page-1" transform="translate(21.000000, 28.000000)">
                <polygon id="Fill-1" fill="#323232" points="70.4265254 47.6796992 70.4265254 49.3623686 74.4218644 49.3623686 74.4218644 62.8628771 76.3572458 62.8628771 76.3572458 49.3623686 80.3534746 49.3623686 80.3534746 47.6796992"></polygon>
                <g id="Group-10" transform="translate(0.000000, 0.000534)">
                    <path d="M84.7361568,61.1802966 L87.4697161,61.1802966 C89.5314534,61.1802966 90.2673432,59.7076271 90.2673432,58.5935593 C90.2673432,56.175 88.7733178,55.7541102 86.7970042,55.7541102 L84.7361568,55.7541102 L84.7361568,61.1802966 Z M84.7361568,54.0723305 L87.55425,54.0723305 C89.0687415,54.0509746 89.8037415,53.1255508 89.8037415,51.6537712 C89.8037415,50.3919915 89.0900975,49.3615678 87.4697161,49.3615678 L84.7361568,49.3615678 L84.7361568,54.0723305 Z M82.8016653,62.8629661 L82.8016653,47.6788983 L87.7437839,47.6788983 C89.8464534,47.6788983 90.5618771,48.394322 91.129589,49.2352119 C91.654589,50.0556356 91.7391229,50.9597034 91.7391229,51.2542373 C91.7391229,53.1469068 91.0877669,54.4086864 89.1310297,54.8500424 L89.1310297,54.9550424 C91.2977669,55.2077542 92.2445466,56.5113559 92.2445466,58.5935593 C92.2445466,62.4838983 89.4050975,62.8629661 87.6806059,62.8629661 L82.8016653,62.8629661 Z" id="Fill-2" fill="#323232"></path>
                    <g id="Group-6" transform="translate(94.322034, 47.161017)">
                        <mask id="mask-2" fill="white">
                            <use xlink:href="#path-1"></use>
                        </mask>
                        <g id="Clip-5"></g>
                        <path d="M8.23333475,4.57702119 C8.23333475,2.78935169 7.49744492,1.82210593 5.54248729,1.82210593 C4.93206356,1.82210593 2.74486017,1.92710593 2.74486017,5.10291102 L2.74486017,10.2336737 C2.74486017,13.5563008 3.71210593,14.3980805 5.54248729,14.3980805 C6.92973305,14.3980805 7.85515678,14.0190127 8.25380085,13.7244788 L8.25380085,9.18189407 L5.45795339,9.18189407 L5.45795339,7.50011441 L10.1891822,7.50011441 L10.1891822,14.8812585 C8.94875847,15.5539703 7.49744492,16.0166822 5.54248729,16.0166822 C2.32397034,16.0166822 0.76765678,14.3553686 0.76765678,10.1500297 L0.76765678,5.16608898 C0.76765678,2.13710593 2.32397034,0.202614407 5.54248729,0.202614407 C8.82240254,0.202614407 10.3787161,1.40210593 10.25325,4.57702119 L8.23333475,4.57702119 Z" id="Fill-4" fill="#323232" mask="url(#mask-2)"></path>
                    </g>
                    <g id="Group-9">
                        <mask id="mask-4" fill="white">
                            <use xlink:href="#path-3"></use>
                        </mask>
                        <g id="Clip-8"></g>
                        <polygon id="Fill-7" fill="#323232" mask="url(#mask-4)" points="-0.000266949153 16.8317669 5.1927839 13.1274025 10.1162161 14.3642669 12.0311314 13.2332924 13.9593941 8.72363136 34.2555381 -0.000266949153 44.4690127 4.26113136 28.2847754 12.468928 26.0335042 16.9616822 24.5839703 17.9974449 27.373589 18.6977415 28.791089 17.6842246 31.0459195 13.1905805 46.4408771 5.08422458 57.7541822 9.80566525 46.3794788 17.1992669 43.6770636 21.6599873 42.7721059 22.5649449 45.6257924 23.2812585 46.4907076 22.4163432 49.2126992 17.9396059 59.8871059 10.6954958 73.9054958 16.5452415 66.9167669 22.5676144 63.6760042 27.8140551 58.3859619 26.4855381 41.4969788 47.5104534 26.5932076 36.492572 40.5573178 22.007911 37.5221059 21.2462161 24.1879958 34.7138008 11.9323602 25.6535466 21.7445212 17.2838008 18.9993941 16.5941822 9.86795339 24.1274873"></polygon>
                    </g>
                </g>
            </g>
        </g>
    </g>
</svg>